# xmcd
#
# Track frame offsets:
# 182
# 11307
# 23690
# 37707
#
# Disc length: 639 seconds
#
# Revision: 0
# Processed by: cddbd v1.5.1PL0 Copyright (c) Steve Scherf et al.
# Submitted via: Audion 3.0.2 (http://www.panic.com/audion/)
#
DISCID=18027d04
DTITLE=The Charly Originals - Bo Diddley
DYEAR=1900
DGENRE=
TTITLE0=Bo Diddley
TTITLE1=Road Runner
TTITLE2=You Can'T Judge A Book By The Cover
TTITLE3=Mona (I Need You Baby)
EXTD=
EXTT0=
EXTT1=
EXTT2=
EXTT3=
PLAYORDER=
